<svg width="1600" height="640" viewBox="0 0 1600 640" fill="none" xmlns="http://www.w3.org/2000/svg">
  <defs>
    <radialGradient id="canvas" cx="0" cy="0" r="1" gradientUnits="userSpaceOnUse" gradientTransform="translate(330 145) rotate(24) scale(1040 720)">
      <stop stop-color="#142C38"/>
      <stop offset="0.45" stop-color="#081117"/>
      <stop offset="1" stop-color="#030506"/>
    </radialGradient>
    <linearGradient id="gold" x1="116" y1="145" x2="428" y2="493" gradientUnits="userSpaceOnUse">
      <stop stop-color="#F7E8BD"/>
      <stop offset="0.42" stop-color="#B9964E"/>
      <stop offset="1" stop-color="#6C5124"/>
    </linearGradient>
    <linearGradient id="blue" x1="162" y1="166" x2="410" y2="440" gradientUnits="userSpaceOnUse">
      <stop stop-color="#78E6FF"/>
      <stop offset="1" stop-color="#1B6E86"/>
    </linearGradient>
  </defs>

  <rect width="1600" height="640" rx="0" fill="url(#canvas)"/>
  <path d="M90 84H1510V556H90V84Z" stroke="#1B3540" stroke-width="1" opacity="0.72"/>

  <g transform="translate(122 126) scale(0.38)">
    <path d="M728 250C830 342 867 486 822 620C761 800 555 892 376 816C210 746 125 555 182 386C226 256 340 169 470 152" stroke="#163443" stroke-width="3" opacity="0.8"/>
    <path d="M722 254C833 356 861 525 790 660C696 839 452 881 304 744C164 615 158 394 290 259C340 208 404 174 474 160" stroke="url(#gold)" stroke-width="18" stroke-linecap="round"/>
    <path d="M336 646L420 390L512 556L604 390L688 646" stroke="url(#blue)" stroke-width="10" stroke-linecap="round" stroke-linejoin="round" opacity="0.28"/>
    <path d="M432 414H628M432 512H604M432 610H628" stroke="#EBD7A4" stroke-width="8" stroke-linecap="round" opacity="0.36"/>
    <circle cx="512" cy="168" r="31" fill="#08151C" stroke="url(#gold)" stroke-width="12"/>
    <circle cx="760" cy="650" r="27" fill="#08151C" stroke="#E6CE91" stroke-width="10"/>
    <circle cx="264" cy="650" r="27" fill="#08151C" stroke="#4AC8EA" stroke-width="10"/>
    <circle cx="512" cy="512" r="74" stroke="#E6CE91" stroke-width="2" opacity="0.38"/>
    <circle cx="512" cy="512" r="8" fill="#E6CE91" opacity="0.86"/>
  </g>

  <path d="M518 182V462" stroke="#B9964E" stroke-width="1" opacity="0.54"/>

  <text x="590" y="296" fill="#F5E8C2" font-family="Songti SC, STSong, Noto Serif CJK SC, serif" font-size="118" font-weight="600" letter-spacing="18">晤席</text>
  <text x="598" y="368" fill="#7FDDF2" font-family="Avenir Next, Helvetica Neue, Arial, sans-serif" font-size="25" font-weight="500" letter-spacing="13">MEET · EAT CONCIERGE</text>
  <text x="600" y="425" fill="#C7B98E" font-family="PingFang SC, Microsoft YaHei, sans-serif" font-size="28" font-weight="300" letter-spacing="9">商务社交礼宾服务</text>

  <text x="1188" y="424" fill="#6F7F82" font-family="Avenir Next, Helvetica Neue, Arial, sans-serif" font-size="16" letter-spacing="5">BOUNDARY · PRESENCE · POISE</text>
</svg>
