<svg width="1600" height="640" viewBox="0 0 1600 640" fill="none" xmlns="http://www.w3.org/2000/svg">
  <defs>
    <linearGradient id="gold" x1="116" y1="145" x2="428" y2="493" gradientUnits="userSpaceOnUse">
      <stop stop-color="#DABF7C"/>
      <stop offset="0.5" stop-color="#A47B36"/>
      <stop offset="1" stop-color="#5C421E"/>
    </linearGradient>
    <linearGradient id="blue" x1="162" y1="166" x2="410" y2="440" gradientUnits="userSpaceOnUse">
      <stop stop-color="#1EA9C9"/>
      <stop offset="1" stop-color="#0E5368"/>
    </linearGradient>
  </defs>

  <rect width="1600" height="640" fill="#F6F2EA"/>
  <path d="M90 84H1510V556H90V84Z" stroke="#D8CFBF" stroke-width="1"/>

  <g transform="translate(122 126) scale(0.38)">
    <path d="M722 254C833 356 861 525 790 660C696 839 452 881 304 744C164 615 158 394 290 259C340 208 404 174 474 160" stroke="url(#gold)" stroke-width="18" stroke-linecap="round"/>
    <path d="M336 646L420 390L512 556L604 390L688 646" stroke="url(#blue)" stroke-width="10" stroke-linecap="round" stroke-linejoin="round" opacity="0.36"/>
    <path d="M432 414H628M432 512H604M432 610H628" stroke="#9D7B3D" stroke-width="8" stroke-linecap="round" opacity="0.45"/>
    <circle cx="512" cy="168" r="31" fill="#F6F2EA" stroke="url(#gold)" stroke-width="12"/>
    <circle cx="760" cy="650" r="27" fill="#F6F2EA" stroke="#A47B36" stroke-width="10"/>
    <circle cx="264" cy="650" r="27" fill="#F6F2EA" stroke="#1688A4" stroke-width="10"/>
    <circle cx="512" cy="512" r="74" stroke="#A47B36" stroke-width="2" opacity="0.38"/>
    <circle cx="512" cy="512" r="8" fill="#A47B36" opacity="0.86"/>
  </g>

  <path d="M518 182V462" stroke="#A47B36" stroke-width="1" opacity="0.48"/>

  <text x="590" y="296" fill="#10191D" font-family="Songti SC, STSong, Noto Serif CJK SC, serif" font-size="118" font-weight="600" letter-spacing="18">晤席</text>
  <text x="598" y="368" fill="#0B6D85" font-family="Avenir Next, Helvetica Neue, Arial, sans-serif" font-size="25" font-weight="500" letter-spacing="13">MEET · EAT CONCIERGE</text>
  <text x="600" y="425" fill="#7B6B48" font-family="PingFang SC, Microsoft YaHei, sans-serif" font-size="28" font-weight="300" letter-spacing="9">商务社交礼宾服务</text>
</svg>
