<svg width="1680" height="640" viewBox="0 0 1680 640" fill="none" xmlns="http://www.w3.org/2000/svg">
  <defs>
    <linearGradient id="gold" x1="122" y1="118" x2="424" y2="496" gradientUnits="userSpaceOnUse">
      <stop stop-color="#D9BF7C"/>
      <stop offset="0.5" stop-color="#A47B36"/>
      <stop offset="1" stop-color="#5D421E"/>
    </linearGradient>
  </defs>

  <rect width="1680" height="640" fill="#F6F2EA"/>
  <path d="M88 84H1592V556H88V84Z" stroke="#D9D0BE" stroke-width="1"/>

  <g transform="translate(116 128) scale(0.375)">
    <path d="M322 664V360L512 570Q612 462 704 360" stroke="url(#gold)" stroke-width="24" stroke-linecap="round" stroke-linejoin="round"/>
    <path d="M710 344H866C872 344 876 348 876 354V384C876 390 872 394 866 394H750C742 394 736 400 736 408V476C736 484 742 490 750 490H822C828 490 832 494 832 500V528C832 534 828 538 822 538H750C742 538 736 544 736 552V616C736 624 742 630 750 630H866C872 630 876 634 876 640V670C876 676 872 680 866 680H710C696 680 686 670 686 656V368C686 354 696 344 710 344Z" fill="#10191D"/>
  </g>

  <path d="M520 176V464" stroke="#A47B36" stroke-width="1" opacity="0.46"/>

  <text x="590" y="292" fill="#10191D" font-family="Noto Serif CJK SC, Source Han Serif SC, Songti SC, STSong, serif" font-size="100" font-weight="500" letter-spacing="14">有个饭局</text>
  <text x="598" y="369" font-family="Avenir Next, Helvetica Neue, Arial, sans-serif" fill="#10191D" letter-spacing="3">
    <tspan font-size="38" font-weight="600" fill="#A47B36">M</tspan><tspan font-size="25" font-weight="500">eet</tspan>
    <tspan font-size="25" fill="#A47B36" dx="18">·</tspan>
    <tspan font-size="38" font-weight="600" fill="#A47B36" dx="18">E</tspan><tspan font-size="25" font-weight="500">at</tspan>
    <tspan font-size="20" fill="#7B6B48" dx="26" letter-spacing="8">CONCIERGE</tspan>
  </text>
  <text x="600" y="424" fill="#7B6B48" font-family="PingFang SC, Microsoft YaHei, sans-serif" font-size="27" font-weight="300" letter-spacing="8">体面饭局，自然发生</text>
</svg>
