<svg width="1024" height="1024" viewBox="0 0 1024 1024" fill="none" xmlns="http://www.w3.org/2000/svg">
  <defs>
    <radialGradient id="bg" cx="0" cy="0" r="1" gradientUnits="userSpaceOnUse" gradientTransform="translate(340 220) rotate(49) scale(820)">
      <stop stop-color="#132B35"/>
      <stop offset="0.46" stop-color="#071117"/>
      <stop offset="1" stop-color="#030506"/>
    </radialGradient>
    <linearGradient id="gold" x1="216" y1="170" x2="796" y2="848" gradientUnits="userSpaceOnUse">
      <stop stop-color="#F8E9BF"/>
      <stop offset="0.44" stop-color="#C4A45D"/>
      <stop offset="1" stop-color="#725626"/>
    </linearGradient>
  </defs>

  <rect x="48" y="48" width="928" height="928" rx="216" fill="url(#bg)"/>

  <path d="M322 664V360L512 570Q612 462 704 360" stroke="url(#gold)" stroke-width="24" stroke-linecap="round" stroke-linejoin="round"/>
  <path d="M710 344H866C872 344 876 348 876 354V384C876 390 872 394 866 394H750C742 394 736 400 736 408V476C736 484 742 490 750 490H822C828 490 832 494 832 500V528C832 534 828 538 822 538H750C742 538 736 544 736 552V616C736 624 742 630 750 630H866C872 630 876 634 876 640V670C876 676 872 680 866 680H710C696 680 686 670 686 656V368C686 354 696 344 710 344Z" fill="#F7F0DE"/>
</svg>
