<svg width="1680" height="640" viewBox="0 0 1680 640" fill="none" xmlns="http://www.w3.org/2000/svg">
  <defs>
    <linearGradient id="gold" x1="122" y1="118" x2="424" y2="496" gradientUnits="userSpaceOnUse">
      <stop stop-color="#D9BF7C"/>
      <stop offset="0.5" stop-color="#A47B36"/>
      <stop offset="1" stop-color="#5D421E"/>
    </linearGradient>
    <linearGradient id="blue" x1="212" y1="206" x2="436" y2="430" gradientUnits="userSpaceOnUse">
      <stop stop-color="#1EA9C9"/>
      <stop offset="1" stop-color="#0E5368"/>
    </linearGradient>
  </defs>

  <rect width="1680" height="640" fill="#F6F2EA"/>
  <path d="M88 84H1592V556H88V84Z" stroke="#D9D0BE" stroke-width="1"/>

  <g transform="translate(116 128) scale(0.375)">
    <path d="M706 228C838 335 866 529 771 668C662 827 430 846 296 708C173 582 176 378 302 254C355 202 424 172 498 166" stroke="url(#gold)" stroke-width="18" stroke-linecap="round"/>
    <path d="M330 648V372L512 568L694 372V648" stroke="url(#gold)" stroke-width="22" stroke-linecap="round" stroke-linejoin="round"/>
    <path d="M694 372H802M694 510H772M694 648H802" stroke="url(#blue)" stroke-width="18" stroke-linecap="round"/>
    <path d="M402 648H622" stroke="#9D7B3D" stroke-width="5" stroke-linecap="round" opacity="0.32"/>
    <circle cx="512" cy="166" r="29" fill="#F6F2EA" stroke="url(#gold)" stroke-width="11"/>
    <circle cx="786" cy="654" r="25" fill="#F6F2EA" stroke="#A47B36" stroke-width="9"/>
    <circle cx="238" cy="654" r="25" fill="#F6F2EA" stroke="#1688A4" stroke-width="9"/>
    <circle cx="512" cy="512" r="78" stroke="#A47B36" stroke-width="2" opacity="0.18"/>
    <circle cx="512" cy="512" r="7" fill="#A47B36" opacity="0.82"/>
  </g>

  <path d="M520 176V464" stroke="#A47B36" stroke-width="1" opacity="0.46"/>

  <text x="592" y="292" fill="#10191D" font-family="Songti SC, STSong, Noto Serif CJK SC, serif" font-size="104" font-weight="600" letter-spacing="12">有个饭局</text>
  <text x="598" y="369" font-family="Avenir Next, Helvetica Neue, Arial, sans-serif" fill="#0B6D85" letter-spacing="3">
    <tspan font-size="38" font-weight="600">M</tspan><tspan font-size="25" font-weight="500">eet</tspan>
    <tspan font-size="25" fill="#A47B36" dx="18">·</tspan>
    <tspan font-size="38" font-weight="600" dx="18">E</tspan><tspan font-size="25" font-weight="500">at</tspan>
    <tspan font-size="20" fill="#7B6B48" dx="26" letter-spacing="8">CONCIERGE</tspan>
  </text>
  <text x="600" y="424" fill="#7B6B48" font-family="PingFang SC, Microsoft YaHei, sans-serif" font-size="27" font-weight="300" letter-spacing="8">商务社交礼宾服务</text>
</svg>
